<svg xmlns="http://www.w3.org/2000/svg" viewBox="0 0 192 192" fill="none" aria-hidden="true">
  <rect width="192" height="192" rx="40" fill="#f5f5f7"/>
  <!-- piano keyboard -->
  <path d="M50 70V52h92v18" stroke="#1d1d1f" stroke-width="3" stroke-linejoin="round"/>
  <path d="M70 52V42h52" stroke="#1d1d1f" stroke-width="3" stroke-linecap="round"/>
  <rect x="30" y="70" width="132" height="78" rx="10" stroke="#1d1d1f" stroke-width="3.5"/>
  <rect x="38" y="80" width="116" height="58" rx="2" stroke="#1d1d1f" stroke-width="2"/>
  <!-- white key dividers (7 keys) -->
  <path d="M54.6 80v58M71.1 80v58M87.7 80v58M104.3 80v58M120.9 80v58M137.4 80v58"
        stroke="#1d1d1f" stroke-width="2"/>
  <!-- black keys -->
  <rect x="49.2" y="80" width="10.8" height="34" rx="1.5" fill="#1d1d1f"/>
  <rect x="65.8" y="80" width="10.8" height="34" rx="1.5" fill="#1d1d1f"/>
  <rect x="99" y="80" width="10.8" height="34" rx="1.5" fill="#1d1d1f"/>
  <rect x="115.6" y="80" width="10.8" height="34" rx="1.5" fill="#1d1d1f"/>
  <rect x="132.2" y="80" width="10.8" height="34" rx="1.5" fill="#1d1d1f"/>
</svg>
